<?xml version="1.0" encoding="UTF-8" standalone="no"?>
<svg
   viewBox="0 0 150 150"
   height="150"
   width="150"
   xml:space="preserve"
   version="1.1"
   id="svg2"
   xmlns="http://www.w3.org/2000/svg"
   xmlns:svg="http://www.w3.org/2000/svg"
   xmlns:rdf="http://www.w3.org/1999/02/22-rdf-syntax-ns#"
   xmlns:cc="http://creativecommons.org/ns#"
   xmlns:dc="http://purl.org/dc/elements/1.1/"><metadata
     id="metadata8"><rdf:RDF><cc:Work
         rdf:about=""><dc:format>image/svg+xml</dc:format><dc:type
           rdf:resource="http://purl.org/dc/dcmitype/StillImage" /></cc:Work></rdf:RDF></metadata><defs
     id="defs6" /><g
     transform="matrix(3.9270098,0,0,-3.9447733,-1025.3784,152.83433)"
     id="g10"
     style="display:inline;opacity:1"><path
       id="path22"
       style="display:inline;fill:#005bab;fill-opacity:1;fill-rule:evenodd;stroke:none"
       d="m 285.36621,11.780503 c 0,0 -6.629,-0.457 -12.26,0.057 0.104,-6.8549998 0.942,-10.3649998 1.079,-11.11899983 h 12.313 c -0.592,3.60200003 -1.053,9.41599983 -1.132,11.06199983 m -20.894,14.222 c 0.827,-0.068 8.088,-0.698 8.572,-0.698 0,0.03 11.491,-11.685 11.491,-11.685 h 14.771 v 12.383 z m 9.623,0.727 h 12.403 v 12.014 h -12.403 z m -0.082,-3.459 v 0 l -1.615,1.646 c -2.141,-0.024 -9.061,0.701 -11.289,1.086 v -12.383 c 11.112,-1.097 16.936,-1.377 23.445,-1.169 h 0.108 z m 11.293,-10.292 h 1.515 V 3.3485032 c -0.19,1.007 -0.753,6.8679998 -0.686,8.7409998 -0.181,0.2 -0.829,0.889 -0.829,0.889" /></g></svg>
